HIERARCHY
ROOT Hips
{
	OFFSET -3.958830 18.904000 13.208200
	CHANNELS 6 Xposition Yposition Zposition Zrotation Yrotation Xrotation 
	JOINT LHipJoint
	{
		OFFSET 0.000000 0.000000 0.000000
		CHANNELS 3 Zrotation Yrotation Xrotation
		JOINT LeftUpLeg
		{
			OFFSET 1.800000 -1.400000 0.085000
			CHANNELS 3 Zrotation Yrotation Xrotation
			JOINT LeftLeg
			{
				OFFSET 2.215000 -6.000000 0.000000
				CHANNELS 3 Zrotation Yrotation Xrotation
				JOINT LeftFoot
				{
					OFFSET 2.500000 -6.900000 0.000000
					CHANNELS 3 Zrotation Yrotation Xrotation
					JOINT LeftToeBase
					{
						OFFSET 0.200000 -0.500000 1.950000
						CHANNELS 3 Zrotation Yrotation Xrotation
						End Site
						{
							OFFSET 0.000000 0.000000 0.000000
						}
					}
				}
			}
		}
	}
	JOINT RHipJoint
	{
		OFFSET 0.000000 0.000000 0.000000
		CHANNELS 3 Zrotation Yrotation Xrotation
		JOINT RightUpLeg
		{
			OFFSET -1.800000 -1.400000 0.085000
			CHANNELS 3 Zrotation Yrotation Xrotation
			JOINT RightLeg
			{
				OFFSET -2.215000 -6.000000 0.000000
				CHANNELS 3 Zrotation Yrotation Xrotation
				JOINT RightFoot
				{
					OFFSET -2.500000 -6.900000 0.000000
					CHANNELS 3 Zrotation Yrotation Xrotation
					JOINT RightToeBase
					{
						OFFSET -0.200000 -0.500000 1.950000
						CHANNELS 3 Zrotation Yrotation Xrotation
						End Site
						{
							OFFSET 0.000000 0.000000 0.000000
						}
					}
				}
			}
		}
	}
	JOINT LowerBack
	{
		OFFSET 0.000000 0.000000 0.000000
		CHANNELS 3 Zrotation Yrotation Xrotation
		JOINT Spine
		{
			OFFSET -0.087000 1.940000 -0.288900
			CHANNELS 3 Zrotation Yrotation Xrotation
			JOINT Spine1
			{
				OFFSET 0.000000 1.950000 0.060000
				CHANNELS 3 Zrotation Yrotation Xrotation
				JOINT Neck
				{
					OFFSET 0.000000 0.000000 0.000000
					CHANNELS 3 Zrotation Yrotation Xrotation
					JOINT Neck1
					{
						OFFSET 0.000000 1.600000 0.340000
						CHANNELS 3 Zrotation Yrotation Xrotation
						JOINT Head
						{
							OFFSET 0.000000 1.667000 -0.240000
							CHANNELS 3 Zrotation Yrotation Xrotation
							End Site
							{
								OFFSET 0.000000 0.000000 0.000000
							}
						}
					}
				}
				JOINT LeftShoulder
				{
					OFFSET 0.000000 0.000000 0.000000
					CHANNELS 3 Zrotation Yrotation Xrotation
					JOINT LeftArm
					{
						OFFSET 2.700000 1.550000 -0.730000
						CHANNELS 3 Zrotation Yrotation Xrotation
						JOINT LeftForeArm
						{
							OFFSET 5.450000 0.000000 0.000000
							CHANNELS 3 Zrotation Yrotation Xrotation
							JOINT LeftHand
							{
								OFFSET 3.450000 0.000000 0.000000
								CHANNELS 3 Zrotation Yrotation Xrotation
								JOINT LeftHandIndex1
								{
									OFFSET 0.750000 0.000000 0.000000
									CHANNELS 3 Zrotation Yrotation Xrotation
									End Site
									{
										OFFSET 0.000000 0.000000 0.000000
									}
								}
							}
						}
					}
				}
				JOINT RightShoulder
				{
					OFFSET 0.000000 0.000000 0.000000
					CHANNELS 3 Zrotation Yrotation Xrotation
					JOINT RightArm
					{
						OFFSET -2.700000 1.550000 -0.730000
						CHANNELS 3 Zrotation Yrotation Xrotation
						JOINT RightForeArm
						{
							OFFSET -5.450000 0.000000 0.000000
							CHANNELS 3 Zrotation Yrotation Xrotation
							JOINT RightHand
							{
								OFFSET -3.450000 0.000000 0.000000
								CHANNELS 3 Zrotation Yrotation Xrotation
								JOINT RightHandIndex1
								{
									OFFSET -0.750000 0.000000 0.000000
									CHANNELS 3 Zrotation Yrotation Xrotation
									End Site
									{
										OFFSET 0.000000 0.000000 0.000000
									}
								}
							}
						}
					}
				}
			}
		}
	}
}
MOTION
Frames: 7
Frame Time: 0.016667
3.279080 16.631800 -6.767430 -0.194399 50.008650 -0.232620 -15.438461 12.524816 3.248140 1.190465 -2.921315 -19.374686 -6.424935 3.140533 1.252898 -0.009389 2.237075 3.696531 0.131540 0.003240 0.248470 18.082405 -10.574048 3.175464 -2.101384 -1.284161 -1.251810 10.299600 -4.396035 0.588649 -0.456102 -3.810136 3.107822 -0.109830 -0.212670 0.033030 -4.177364 -1.255919 -7.834324 8.703192 3.591196 4.737740 -1.705318 3.935706 2.837377 2.582855 -3.712439 -12.753373 -14.180322 8.671855 60.952219 -0.217610 4.758850 9.487810 -24.050045 -9.620973 4.805053 -59.472530 -1.918077 -5.684158 -10.446013 -16.177891 -0.020626 -3.535553 2.919025 0.223770 -0.118190 0.173570 -0.037870 19.654057 14.147747 9.069137 64.028450 -3.135516 -10.261001 7.713325 18.045352 -0.369210 2.710118 -1.216692 0.076090 -0.140680 -0.139840 -0.111190 
3.282100 16.622960 -6.771230 -0.180814 49.911631 -0.172593 -15.436358 12.527712 3.235319 1.521310 -2.952811 -19.877382 -6.910588 3.385268 2.492743 -0.012158 2.275751 3.682416 0.117740 -0.016890 0.249630 18.071188 -10.597577 3.216476 -2.187899 -1.275615 -1.203530 10.648929 -4.405855 0.311457 -0.458866 -3.827786 3.107504 -0.122400 -0.211170 0.027030 -4.158658 -1.201018 -7.865973 8.515587 3.896570 4.818449 -1.712521 4.257731 2.934275 2.709214 -3.423854 -13.017969 -13.297474 7.849901 60.099898 -0.350860 4.446130 9.060320 -23.513456 -10.309526 5.049196 -59.840461 -2.254554 -5.761425 -10.676659 -16.769298 0.022419 -3.528170 2.910831 0.231090 -0.120350 0.171520 -0.043660 18.916385 14.743547 9.464641 64.772288 -3.399379 -10.573518 8.987457 18.427661 -0.256306 2.705198 -1.211774 0.067050 -0.133020 -0.135590 -0.115760 
3.282690 16.623090 -6.770590 0.232274 49.630320 0.406939 -15.423271 12.534715 3.260391 1.907813 -3.147354 -21.034991 -7.803893 3.790163 4.457596 0.002850 2.352827 3.644421 0.096810 -0.051540 0.233330 18.067767 -10.608491 3.257027 -2.184966 -1.229007 -1.259446 10.270095 -4.255889 -0.254439 -0.447594 -3.803971 3.117935 -0.147450 -0.210690 0.034390 -4.166785 -1.207972 -7.926703 8.583552 4.032305 4.932308 -2.497013 4.497730 2.587753 3.013350 -3.573369 -13.442641 -13.449825 7.497053 58.223394 -0.487520 4.109490 9.181770 -23.292758 -10.975245 5.241213 -60.392388 -2.109584 -6.075515 -8.874213 -16.689335 -0.214257 -3.518806 2.926529 0.230300 -0.121900 0.163520 -0.046900 18.088556 15.624592 10.114238 66.021617 -4.130232 -11.354209 11.843877 19.233432 -0.023551 2.704700 -1.234903 0.069170 -0.152870 -0.127750 -0.114500 
3.279570 16.638380 -6.774400 0.246722 48.582487 1.070431 -15.363564 12.570326 3.263873 0.466398 -3.420015 -22.353281 -6.110244 3.699135 6.307449 -0.015426 2.115206 3.713063 0.112010 -0.029650 0.215250 18.136797 -10.657308 3.298229 0.175240 -1.336173 -1.753416 7.359943 -3.745629 -0.675989 -0.424096 -3.535432 3.212157 -0.152140 -0.228200 0.023170 -4.451278 -1.181938 -7.954219 10.558235 4.217792 5.269634 -4.806189 5.019759 1.310799 3.388087 -5.230945 -13.830594 -17.608624 8.961626 56.650692 0.514510 2.946070 8.174090 -23.351034 -10.218436 4.597876 -62.780350 -2.474884 -6.311627 -2.587829 -15.270010 -0.991727 -3.486734 2.910816 0.247630 -0.165420 0.182540 -0.032050 17.163561 16.261632 10.851294 68.804485 -4.845603 -12.577785 17.439446 20.105422 0.404889 2.722280 -1.256490 0.087910 -0.149820 -0.137450 -0.094270 
3.267000 16.642430 -6.769770 -0.015727 47.326026 1.126898 -15.394234 12.567157 3.324518 2.230388 -3.452148 -23.491662 -7.655197 4.249140 7.900530 0.013222 2.315689 3.612089 0.109160 -0.048240 0.246660 18.073198 -10.699678 3.359153 0.989812 -1.362532 -2.016412 6.836244 -3.650044 -0.830325 -0.424327 -3.432944 3.238759 -0.177530 -0.275190 0.022760 -4.158669 -1.081259 -8.068702 8.453592 4.997500 5.660983 -3.768825 5.720998 0.882213 3.529769 -4.420176 -14.371197 -15.226425 7.241977 56.392516 0.336860 2.483860 6.798540 -22.277523 -11.371891 5.172061 -64.432599 -2.552846 -6.659159 -4.994909 -16.037149 -0.765583 -3.441149 2.912575 0.284470 -0.199290 0.210830 -0.055470 16.173616 17.403036 11.304721 71.556897 -4.687708 -13.370871 16.351681 20.525179 0.277621 2.724326 -1.237055 0.093000 -0.166390 -0.142370 -0.115430 
3.228140 16.636260 -6.758330 0.545098 47.035443 1.364203 -15.439076 12.467851 3.509976 6.371331 -3.508483 -25.226416 -12.210574 5.814757 10.771104 0.122752 3.149962 3.286733 0.132710 -0.024260 0.266450 18.012424 -10.584494 3.370511 0.390520 -1.351691 -1.577467 7.705748 -3.681946 -1.485970 -0.452373 -3.521313 3.203741 -0.157640 -0.277640 0.042170 -3.828045 -1.191610 -8.257861 6.191817 5.118106 7.029144 -3.380628 5.941847 1.414973 3.384089 -3.593230 -14.533861 -12.967786 5.464332 53.697909 0.230610 1.931530 4.658440 -21.933805 -13.009732 5.595499 -59.801424 -2.597657 -6.107745 -8.233269 -15.682384 -0.243945 -3.436008 2.964762 0.274920 -0.192400 0.213300 -0.048970 16.319085 18.483316 11.606005 67.341053 -4.857579 -12.998203 25.558135 20.599509 1.063496 2.720977 -1.342186 0.101080 -0.172080 -0.156450 -0.116210 
3.168050 16.622100 -6.744230 1.126431 46.905887 2.295279 -15.503897 12.266952 3.855877 9.488442 -3.837477 -27.530360 -16.176999 7.184569 12.527704 0.236051 3.954649 2.984811 0.112930 -0.047150 0.255500 17.953943 -10.424900 3.233899 -1.765131 -0.963098 -2.580499 10.221483 -4.017362 -0.540275 -0.428327 -3.567101 3.196743 -0.163100 -0.264150 0.031370 -3.441842 -1.316024 -8.384951 3.482571 5.691126 8.011211 -2.991695 6.468384 1.422503 3.464783 -3.225791 -14.608208 -11.684901 4.683185 50.118172 0.534100 2.026890 3.237600 -20.462420 -13.467794 5.552624 -59.238753 -3.740053 -5.803603 -8.520830 -16.006482 -0.148928 -3.437745 2.973707 0.278210 -0.186600 0.197830 -0.049320 14.966683 18.837083 11.949888 67.320971 -5.422881 -13.965782 26.091562 22.429700 1.262246 2.692512 -1.356716 0.078740 -0.160510 -0.150910 -0.124090 
